<?xml version="1.0" encoding="utf-8"?>
<!-- Generator: Adobe Illustrator 16.0.0, SVG Export Plug-In . SVG Version: 6.00 Build 0)  -->
<!DOCTYPE svg PUBLIC "-//W3C//DTD SVG 1.1//EN" "http://www.w3.org/Graphics/SVG/1.1/DTD/svg11.dtd">
<svg version="1.1" id="Layer_1" xmlns="http://www.w3.org/2000/svg" xmlns:xlink="http://www.w3.org/1999/xlink" x="0px" y="0px"
	 width="400px" height="400px" viewBox="0 0 1280 2393.49" enable-background="new 0 0 1280 2393.49" xml:space="preserve">
<path fill="none" stroke="#1B1464" stroke-miterlimit="10" d="M1577,40.5"/>
<path fill="none" stroke="#1B1464" stroke-miterlimit="10" d="M299,40.5"/>
<path fill="none" stroke="#1B1464" stroke-miterlimit="10" d="M299,31"/>
<path fill="none" stroke="#1B1464" stroke-miterlimit="10" d="M116,31"/>
<path fill="none" stroke="#000000" stroke-width="4" stroke-miterlimit="10" d="M0,2400"/>
<path fill="none" stroke="#000000" stroke-width="4" stroke-miterlimit="10" d="M0,8c15.596,0,15.596,16,31.192,16
	C46.789,24,46.789,8,62.385,8C77.982,8,77.982,24,93.58,24c15.596,0,15.596-16,31.193-16s15.597,16,31.193,16
	c15.598,0,15.598-16,31.195-16c15.597,0,15.597,16,31.193,16s15.597-16,31.193-16c15.597,0,15.597,16,31.193,16
	c15.597,0,15.597-16,31.194-16s15.597,16,31.195,16s15.598-16,31.195-16s15.598,16,31.195,16s15.598-16,31.195-16
	c15.594,0,15.594,16,31.188,16C483.5,24,483.5,8,499.096,8s15.596,16,31.192,16c15.595,0,15.595-16,31.19-16
	c15.597,0,15.597,16,31.193,16c15.598,0,15.598-16,31.196-16c15.597,0,15.597,16,31.193,16s15.597-16,31.192-16s15.596,16,31.192,16
	s15.597-16,31.193-16s15.597,16,31.194,16c15.599,0,15.599-16,31.197-16c15.598,0,15.598,16,31.195,16s15.598-16,31.196-16
	c15.598,0,15.598,16,31.195,16c15.599,0,15.599-16,31.196-16s15.598,16,31.196,16s15.599-16,31.198-16s15.6,16,31.198,16
	c15.597,0,15.597-16,31.194-16s15.598,16,31.195,16c15.6,0,15.6-16,31.198-16c15.6,0,15.6,16,31.199,16c15.601,0,15.601-16,31.2-16
	s15.6,16,31.199,16c15.602,0,15.602-16,31.204-16s15.603,16,31.204,16"/>
</svg>
